
<svg width="50px" height="39px" version="1.0" xmlns="http://www.w3.org/2000/svg"
 viewBox="0 0 180.000000 180.000000"
 preserveAspectRatio="xMidYMid meet">

<g transform="translate(0.000000,180.000000) scale(0.100000,-0.100000)"
fill="#000000" stroke="none">
<path d="M765 1785 c-135 -22 -244 -64 -366 -141 -57 -35 -208 -186 -243 -243
-203 -323 -203 -679 0 -1002 35 -57 186 -208 243 -243 323 -203 679 -203 1002
0 57 35 208 186 243 243 203 323 203 679 0 1002 -35 57 -186 208 -243 243
-126 80 -253 126 -394 145 -97 13 -140 13 -242 -4z m-75 -880 l0 -235 -30 0
-30 0 0 235 0 235 30 0 30 0 0 -235z m-268 205 c21 -6 51 -22 68 -37 33 -27
73 -96 63 -107 -18 -17 -52 -2 -86 38 -31 37 -45 46 -83 52 -65 9 -117 -9
-151 -53 -25 -32 -28 -45 -28 -112 0 -63 4 -82 22 -107 62 -86 201 -82 251 7
12 20 25 29 43 29 36 0 40 -8 22 -44 -41 -81 -91 -110 -193 -110 -67 -1 -80 3
-120 29 -82 55 -116 164 -85 271 35 121 148 179 277 144z m563 -100 c14 -5 37
-22 50 -36 l25 -27 0 37 c0 33 2 36 30 36 l30 0 0 -175 0 -175 -30 0 c-27 0
-30 3 -30 32 l0 32 -36 -35 c-32 -31 -40 -34 -97 -34 -70 0 -116 24 -142 76
-35 66 -28 167 15 221 39 50 122 72 185 48z m284 -137 l35 -142 46 142 46 142
34 0 33 0 47 -140 c42 -124 48 -137 55 -110 8 34 41 160 56 218 8 32 14 37 39
37 17 0 30 -1 30 -2 0 -2 -22 -79 -49 -173 l-48 -170 -35 -3 c-40 -3 -37 -8
-88 148 -17 52 -35 98 -39 102 -3 4 -26 -51 -50 -122 l-42 -130 -37 0 -37 0
-44 158 c-24 86 -46 165 -49 175 -4 16 0 18 28 15 l34 -3 35 -142z"/>
<path d="M877 949 c-47 -27 -62 -129 -27 -186 21 -35 67 -50 122 -39 43 8 66
32 78 78 14 50 -2 110 -37 137 -28 23 -104 28 -136 10z"/>
</g>
</svg>
